<svg width="26" height="26" viewBox="0 0 26 26" fill="none" xmlns="http://www.w3.org/2000/svg">
<path d="M13.0001 2.16666C14.2491 2.16666 15.4267 2.48083 16.4548 3.03333C16.3725 3.51541 16.2121 3.85666 15.9933 4.07658C15.8575 4.20848 15.6965 4.31165 15.5199 4.37991C14.8438 4.06238 14.1119 3.8811 13.3658 3.84645C12.6197 3.8118 11.8741 3.92444 11.1715 4.17794C10.4689 4.43145 9.82317 4.82085 9.27109 5.32392C8.71901 5.82698 8.27143 6.43387 7.95389 7.10991C7.63636 7.78596 7.45509 8.51793 7.42043 9.26403C7.38578 10.0101 7.49842 10.7557 7.75192 11.4583C8.00543 12.1609 8.39483 12.8066 8.8979 13.3587C9.40097 13.9108 10.0079 14.3584 10.6839 14.6759C11.43 14.9655 12.1182 15.1269 12.7487 15.1602L13.0001 15.1667C13.6992 15.1667 14.4709 15.0034 15.3151 14.677C16.3026 14.2336 17.1446 13.52 17.744 12.6187C18.4373 12.857 19.2704 12.7118 19.7958 12.1842C19.3487 13.305 18.6316 14.2978 17.7082 15.0746L19.4643 20.345C19.6041 20.7644 19.5929 21.2195 19.4327 21.6316C19.2725 22.0437 18.9733 22.3868 18.5868 22.6016C17.1016 23.4282 15.2361 23.8333 13.0001 23.8333C10.7641 23.8333 8.89856 23.4282 7.41331 22.6016C7.02687 22.3868 6.72765 22.0437 6.56741 21.6316C6.40718 21.2195 6.396 20.7644 6.53581 20.345L8.29189 15.0746C7.14422 14.109 6.32124 12.8138 5.93451 11.3646C5.54779 9.91548 5.61603 8.38246 6.12998 6.97341C6.64393 5.56435 7.57874 4.34742 8.80767 3.48758C10.0366 2.62774 11.5002 2.1666 13.0001 2.16666ZM16.3118 16.0236L15.9218 16.185L15.9023 16.1937C15.0957 16.5428 14.2323 16.7424 13.3543 16.783H13.3359L13.2568 16.7873L13.0001 16.7917L12.7877 16.7873L12.6469 16.7819C11.7686 16.7418 10.9049 16.5425 10.0978 16.1937L10.0783 16.185C9.94737 16.1335 9.81735 16.0797 9.68831 16.0236L8.07739 20.8596C8.05752 20.9193 8.05908 20.9841 8.08182 21.0429C8.10456 21.1016 8.14705 21.1505 8.20198 21.1813C9.42614 21.8606 11.0219 22.2083 13.0001 22.2083C14.9782 22.2083 16.5751 21.8617 17.7981 21.1813C17.8531 21.1505 17.8956 21.1016 17.9183 21.0429C17.941 20.9841 17.9426 20.9193 17.9227 20.8596L16.3118 16.0236ZM12.6642 16.7841L12.7877 16.7873L12.8235 16.7895L13.0001 16.7917C12.8874 16.7917 12.7754 16.7891 12.6642 16.7841ZM19.4914 2.03666L19.5001 2.16666C19.5001 3.41249 19.7926 4.28999 20.3451 4.84249C20.8553 5.35166 21.6429 5.64091 22.7392 5.68208L23.0209 5.68749C24.0587 5.68749 24.1021 7.18033 23.1509 7.30383L23.0209 7.31249C21.7751 7.31249 20.8976 7.605 20.3451 8.1575C19.8359 8.66883 19.5466 9.45533 19.5055 10.5517L19.5001 10.8333C19.5001 11.9167 17.8751 11.9167 17.8751 10.8333C17.8751 9.5875 17.5826 8.71 17.0301 8.1575C16.5187 7.64833 15.7322 7.35908 14.6359 7.31791L14.3542 7.31249C13.3164 7.31249 13.2731 5.81966 14.2242 5.69616L14.3542 5.68749C15.6001 5.68749 16.4776 5.39499 17.0301 4.84249C17.5826 4.28999 17.8751 3.41249 17.8751 2.16666C17.8751 1.12883 19.3679 1.08549 19.4914 2.03666ZM18.6876 5.36574L18.5316 5.58566C18.2603 5.94465 17.929 6.25399 17.5522 6.49999C18.0052 6.79528 18.3918 7.18154 18.6876 7.63424C18.983 7.18165 19.3692 6.7954 19.8218 6.49999C19.4455 6.25389 19.1145 5.94456 18.8436 5.58566L18.6876 5.36574Z" fill="#0038A8"/>
</svg>
