<svg width="26" height="26" viewBox="0 0 26 26" fill="none" xmlns="http://www.w3.org/2000/svg">
<path d="M18.0733 16.1698L19.4642 20.345C19.6041 20.7644 19.5929 21.2195 19.4326 21.6316C19.2724 22.0436 18.9732 22.3867 18.5868 22.6015C17.1015 23.4281 15.236 23.8333 13 23.8333C10.764 23.8333 8.8985 23.4281 7.41325 22.6015C7.02681 22.3867 6.72759 22.0436 6.56735 21.6316C6.40712 21.2195 6.39594 20.7644 6.53575 20.345L7.92783 16.1698C9.38542 17.2798 11.1679 17.879 13 17.875C14.9067 17.875 16.6638 17.2401 18.0733 16.1698ZM13 2.16663C14.4484 2.16663 15.7972 2.58696 16.9325 3.31388C16.8437 3.65296 16.7072 3.90321 16.5349 4.07654C16.2608 4.34954 15.795 4.53154 15.0995 4.58571L14.859 4.59979L14.4484 4.61063C12.0987 4.78288 12.1572 8.39579 14.625 8.39579C15.5892 8.39579 16.2034 8.59188 16.5349 8.92338C16.8079 9.19746 16.9899 9.66329 17.0441 10.3588L17.0582 10.5993L17.069 11.0099C17.173 12.4334 18.5402 12.9729 19.6018 12.6284C18.8874 14.1258 17.6851 15.3357 16.1922 16.0597C14.6994 16.7836 13.0048 16.9784 11.3866 16.6122C9.76846 16.2459 8.3229 15.3404 7.28728 14.0442C6.25166 12.748 5.68753 11.1382 5.6875 9.47913C5.6875 7.53973 6.45792 5.67977 7.82928 4.30841C9.20064 2.93705 11.0606 2.16663 13 2.16663ZM19.7708 2.16663C19.7708 3.41246 20.0633 4.28996 20.6158 4.84246C21.1261 5.35163 21.9137 5.64088 23.01 5.68204L23.2917 5.68746C24.3295 5.68746 24.3728 7.18029 23.4217 7.30379L23.2917 7.31246C22.0458 7.31246 21.1683 7.60496 20.6158 8.15746C20.1067 8.66879 19.8174 9.45529 19.7762 10.5516L19.7708 10.8333C19.7708 11.9166 18.1458 11.9166 18.1458 10.8333C18.1458 9.58746 17.8533 8.70996 17.3008 8.15746C16.7895 7.64829 16.003 7.35904 14.9067 7.31788L14.625 7.31246C13.5872 7.31246 13.5438 5.81963 14.495 5.69613L14.625 5.68746C15.8708 5.68746 16.7483 5.39496 17.3008 4.84246C17.8533 4.28996 18.1458 3.41246 18.1458 2.16663C18.1458 1.08329 19.7708 1.08329 19.7708 2.16663Z" fill="#0038A8"/>
</svg>
