<svg width="37" height="37" viewBox="0 0 37 37" fill="none" xmlns="http://www.w3.org/2000/svg">
<path d="M10.448 9.52405H13.853L15.215 6.80005H22.025L23.387 9.52405H26.792V20.42H10.448V9.52405Z" stroke="currentColor" stroke-width="2" stroke-linecap="round" stroke-linejoin="round"/>
<path d="M18.62 17.015C20.1244 17.015 21.344 15.7954 21.344 14.291C21.344 12.7866 20.1244 11.567 18.62 11.567C17.1156 11.567 15.896 12.7866 15.896 14.291C15.896 15.7954 17.1156 17.015 18.62 17.015Z" stroke="currentColor" stroke-width="2" stroke-linecap="round" stroke-linejoin="round"/>
<path d="M18.62 27.9111C11.0977 27.9111 5 24.8622 5 21.1011C5 20.1327 5.40451 19.2113 6.13318 18.3771M18.62 27.9111L15.896 25.1871M18.62 27.9111L15.896 30.6351M24.068 27.3445C28.8786 26.2937 32.24 23.8932 32.24 21.1011C32.24 20.1327 31.8355 19.2113 31.1068 18.3771" stroke="#71A1FF" stroke-width="2" stroke-linecap="round" stroke-linejoin="round"/>
</svg>
