<svg width="30" height="27" viewBox="0 0 30 27" fill="none" xmlns="http://www.w3.org/2000/svg">
<path d="M6.448 4.52399H9.853L11.215 1.79999H18.025L19.387 4.52399H22.792V15.42H6.448V4.52399Z" stroke="#0038A8" stroke-width="2" stroke-linecap="round" stroke-linejoin="round"/>
<path d="M14.62 12.015C16.1244 12.015 17.344 10.7954 17.344 9.29102C17.344 7.78659 16.1244 6.56702 14.62 6.56702C13.1156 6.56702 11.896 7.78659 11.896 9.29102C11.896 10.7954 13.1156 12.015 14.62 12.015Z" stroke="#0038A8" stroke-width="2" stroke-linecap="round" stroke-linejoin="round"/>
<path d="M14.62 22.911C7.09767 22.911 1 19.8621 1 16.101C1 15.1326 1.40451 14.2112 2.13318 13.377M14.62 22.911L11.896 20.187M14.62 22.911L11.896 25.635M20.068 22.3444C24.8786 21.2936 28.24 18.8931 28.24 16.101C28.24 15.1326 27.8355 14.2112 27.1068 13.377" stroke="#0038A8" stroke-width="2" stroke-linecap="round" stroke-linejoin="round"/>
</svg>
